<?xml version="1.0" encoding="utf-8"?>
<!-- Generator: Adobe Illustrator 25.2.0, SVG Export Plug-In . SVG Version: 6.00 Build 0)  -->
<svg version="1.1"
	 id="svg2" inkscape:version="0.48.4 r9939" xmlns:cc="http://creativecommons.org/ns#" xmlns:dc="http://purl.org/dc/elements/1.1/" xmlns:inkscape="http://www.inkscape.org/namespaces/inkscape" xmlns:rdf="http://www.w3.org/1999/02/22-rdf-syntax-ns#" xmlns:sodipodi="http://sodipodi.sourceforge.net/DTD/sodipodi-0.dtd" xmlns:svg="http://www.w3.org/2000/svg"
	 xmlns="http://www.w3.org/2000/svg" xmlns:xlink="http://www.w3.org/1999/xlink" x="0px" y="0px" viewBox="0 0 111.5 126.7"
	 style="enable-background:new 0 0 111.5 126.7;" xml:space="preserve">
<style type="text/css">
	.st0{fill:#D6BA32;}
	.st1{fill:#FFDA3E;}
	.st2{fill:#EBEBEB;}
</style>
<sodipodi:namedview  bordercolor="#666666" borderopacity="1.0" fit-margin-bottom="0" fit-margin-left="0" fit-margin-right="0" fit-margin-top="0" id="base" inkscape:current-layer="layer1" inkscape:cx="50.16802" inkscape:cy="19.624571" inkscape:document-units="px" inkscape:pageopacity="0.0" inkscape:pageshadow="2" inkscape:window-height="764" inkscape:window-maximized="0" inkscape:window-width="1026" inkscape:window-x="220" inkscape:window-y="220" inkscape:zoom="0.77995601" pagecolor="#ffffff" showgrid="false">
	</sodipodi:namedview>
<g id="layer1" transform="translate(-326.59295,-168.33349)" inkscape:groupmode="layer" inkscape:label="Layer 1">
	<g id="g8487" transform="translate(-202.57553,-38.463711)">
		<g id="g3768" transform="matrix(1.25,0,0,1.25,-2.5065195,174.1722)">
			<path id="path3770" inkscape:connector-curvature="0" class="st0" d="M425.3,26.3c10-0.4,20,0.1,29.9,0c11-0.3,22-0.1,33,0
				c8.7,0,17.5,0,26.2,0c-2.8,30.3-5.5,60.7-8.1,91c-11.7,3.3-23.4,6.6-35.1,9.9c-1.5,0.6-3,0-4.5-0.4c-11.1-3.2-22.3-6.4-33.4-9.4
				C430.5,87.1,427.8,56.7,425.3,26.3 M470.1,34.2c-0.4,15-0.1,29.9-0.2,44.9c0.1,13.7-0.2,27.4,0.2,41c9.8-2.3,19.5-5.2,29.3-8
				c2.4-26,4.8-51.9,6.9-77.9C494.2,34.1,482.1,34.3,470.1,34.2 M457.6,92.7c-5.8-1.6-11.5-3.4-17.4-4.7c-0.2,3.5-0.1,7,0.3,10.4
				c8.6,2.1,17,4.8,25.6,6.9c0.1-19.8,0-39.6,0-59.4c-2.8-0.1-5.6-0.1-8.4-0.2C457.4,61.3,457.7,77,457.6,92.7L457.6,92.7z"/>
		</g>
		<g id="g3796" transform="matrix(1.25,0,0,1.25,-2.5065195,174.1722)">
			<path id="path3798" inkscape:connector-curvature="0" class="st1" d="M470.1,34.2c12,0,24.1-0.1,36.1,0c-2,26-4.4,52-6.9,77.9
				c-9.7,2.8-19.4,5.7-29.3,8c-0.4-13.7,0-27.4-0.2-41.1C470.1,64.2,469.7,49.2,470.1,34.2 M473.5,45.9c0,12.9,0,25.8,0,38.7
				c5.9-0.9,11.7-2,17.6-3.1c-0.1,3-0.2,6-0.3,9c-5.7,1.5-11.4,3.1-17.1,4.5c-0.1,3.5-0.1,6.9-0.1,10.4c7.2-1.6,14.4-3.7,21.5-5.5
				c0.9-0.4,2.6-0.4,2.5-1.8c0.9-9.3,1.4-18.6,2.2-27.8c-6,0.5-11.8,1.5-17.8,1.9c0-5.3-0.1-10.5,0-15.8c6.3,0,12.5,0,18.8,0
				c0.4-3.5,0.8-7,1-10.6C492.4,45.8,483,45.7,473.5,45.9L473.5,45.9z"/>
		</g>
		<path id="path3806" inkscape:connector-curvature="0" class="st2" d="M569.5,290c0.2-19.6-0.2-39.1,0.2-58.7
			c3.5,0.1,7,0.1,10.5,0.2c-0.1,24.8,0,49.5,0,74.3c-10.7-2.6-21.2-6-32-8.6c-0.5-4.3-0.6-8.7-0.4-13
			C555.1,285.7,562.3,288,569.5,290z"/>
	</g>
</g>
</svg>
