<?xml version="1.0" encoding="utf-8"?>
<!-- Generator: Adobe Illustrator 25.2.0, SVG Export Plug-In . SVG Version: 6.00 Build 0)  -->
<svg version="1.1" id="Layer_1" xmlns="http://www.w3.org/2000/svg" xmlns:xlink="http://www.w3.org/1999/xlink" x="0px" y="0px"
	 viewBox="0 0 23 20.5" style="enable-background:new 0 0 23 20.5;" xml:space="preserve">
<style type="text/css">
	.st0{fill:#61DAFB;}
</style>
<circle class="st0" cx="11.5" cy="10.2" r="2"/>
<g>
	<path class="st0" d="M11.5,14.9C5.1,14.9,0,12.9,0,10.2s5.1-4.7,11.5-4.7c6.4,0,11.5,2.1,11.5,4.7S17.9,14.9,11.5,14.9z M11.5,6.5
		C5.3,6.5,1,8.5,1,10.2s4.3,3.7,10.5,3.7c6.2,0,10.5-2,10.5-3.7S17.7,6.5,11.5,6.5z"/>
</g>
<g>
	<path class="st0" d="M16.1,20.5c-2.4,0-5.9-3.1-8.7-7.9C5.9,10,4.9,7.3,4.5,5.1c-0.4-2.4,0-4.1,1.2-4.8c2.3-1.3,6.6,2,9.8,7.6l0,0
		c3.2,5.6,4,11,1.7,12.3C16.9,20.4,16.5,20.5,16.1,20.5z M6.9,1C6.7,1,6.4,1,6.2,1.1C5.5,1.6,5.2,3,5.5,4.9C5.9,7,6.9,9.6,8.3,12.1
		c3.1,5.4,6.9,8.1,8.5,7.2c1.5-0.9,1-5.6-2-10.9l0,0C12,3.7,8.7,1,6.9,1z"/>
</g>
<g>
	<path class="st0" d="M6.9,20.5c-0.4,0-0.8-0.1-1.1-0.3c-2.3-1.3-1.5-6.7,1.7-12.3C10.7,2.3,15-1,17.2,0.3c1.2,0.7,1.6,2.4,1.2,4.8
		c-0.4,2.3-1.4,4.9-2.9,7.5l0,0C12.8,17.3,9.3,20.5,6.9,20.5z M16.1,1C14.3,1,11,3.7,8.3,8.4c-3.1,5.4-3.6,10.1-2,10.9
		c1.5,0.9,5.4-1.9,8.5-7.2c1.4-2.5,2.4-5,2.8-7.2c0.3-1.9,0-3.3-0.7-3.8C16.6,1,16.3,1,16.1,1z"/>
</g>
</svg>
